# xmcd
#
# Track frame offsets: 
#        150
#        13475
#        26076
#        37969
#        52443
#        67532
#        85417
#        100732
#        112881
#        132481
#        143463
#        156730
#        171728
#        183374
#
# Disc length: 2576 seconds
#
# Revision: 0
# Processed by: cddbd v1.5PL3 Copyright (c) Steve Scherf et al.
# Submitted via: ExactAudioCopy v0.95a4
#
DISCID=c70a0e0e
DTITLE=Kenny Rogers and The First Edition - The Hits and More [CD 1)
DYEAR=2001
DGENRE=Country
TTITLE0=Ruby, Don't Take Your Love to Town
TTITLE1=Reuben James
TTITLE2=Me and Bobby McGee
TTITLE3=Sunshine
TTITLE4=Just Dropped In (To See What Condition My Condition Was In)
TTITLE5=Something's Burning
TTITLE6=For the Good News
TTITLE7=Elvira
TTITLE8=Lay It Down
TTITLE9=Always Leaving, Always Gone
TTITLE10=Shine on Ruby Mountain
TTITLE11=All God's Lonely Children
TTITLE12=Girl, Get a Hold of Yourself
TTITLE13=New Design
EXTD=
EXTT0=
EXTT1=
EXTT2=
EXTT3=
EXTT4=
EXTT5=
EXTT6=
EXTT7=
EXTT8=
EXTT9=
EXTT10=
EXTT11=
EXTT12=
EXTT13=
PLAYORDER=
